<svg width="226" height="204" viewBox="0 0 226 204" fill="none" xmlns="http://www.w3.org/2000/svg">
<path d="M23.8444 77.4543H201.317C214.48 77.4543 225.162 88.1363 225.162 101.299C225.162 114.221 214.68 124.703 201.757 124.703H23.4043C10.4819 124.703 0 114.221 0 101.299C0 88.1363 10.682 77.4543 23.8444 77.4543Z" fill="#2563EB"/>
<path d="M129.024 0H201.317C214.48 0 225.162 10.682 225.162 23.8444C225.162 36.7668 214.68 47.2487 201.757 47.2487H128.584C115.661 47.2487 105.179 36.7668 105.179 23.8444C105.179 10.682 115.861 0 129.024 0Z" fill="#0F172A"/>
<path d="M80.0548 154.748H24.4446C10.9884 154.748 0.0800781 165.657 0.0800781 179.113C0.0800781 192.569 10.9884 203.477 24.4446 203.477H80.0548C93.5109 203.477 104.419 192.569 104.419 179.113C104.419 165.657 93.5109 154.748 80.0548 154.748Z" fill="#0F172A"/>
</svg>
