<svg width="1436" height="217" viewBox="0 0 1436 217" fill="none" xmlns="http://www.w3.org/2000/svg">
<g clip-path="url(#clip0_13004_30)">
<path d="M23.8444 87.9362H201.317C214.48 87.9362 225.162 98.6182 225.162 111.781C225.162 124.703 214.68 135.185 201.757 135.185H23.4043C10.4819 135.185 0 124.703 0 111.781C0 98.6182 10.682 87.9362 23.8444 87.9362Z" fill="#2563EB"/>
<path d="M129.024 10.4819H201.317C214.48 10.4819 225.162 21.1639 225.162 34.3263C225.162 47.2487 214.68 57.7306 201.757 57.7306H128.584C115.661 57.7306 105.179 47.2487 105.179 34.3263C105.179 21.1639 115.861 10.4819 129.024 10.4819Z" fill="#0F172A"/>
<path d="M80.0548 165.23H24.4446C10.9884 165.23 0.0800781 176.139 0.0800781 189.595C0.0800781 203.051 10.9884 213.959 24.4446 213.959H80.0548C93.5109 213.959 104.419 203.051 104.419 189.595C104.419 176.139 93.5109 165.23 80.0548 165.23Z" fill="#0F172A"/>
<path d="M1409.18 39.6873V25.7647H1403.9V23.3242H1417.26V25.7647H1411.94V39.6873H1409.22H1409.18ZM1419.06 39.6873V23.3242H1423.06L1427.18 36.3666L1431.18 23.3242H1435.1V39.6873H1432.62V25.9647L1428.42 39.6873H1425.94L1421.54 25.7647V39.6873H1419.02H1419.06Z" fill="#9CA3AF"/>
<path d="M372.909 68.3726C372.109 60.3311 368.668 54.0499 362.627 49.6091C356.586 45.1683 348.344 42.9279 337.982 42.9279C330.941 42.9279 324.98 43.9281 320.099 45.8884C315.258 47.8488 311.538 50.5693 308.977 54.0099C306.417 57.4506 305.136 61.4113 305.136 65.7721C305.016 69.4528 305.776 72.6134 307.497 75.3739C309.177 78.0944 311.538 80.4548 314.538 82.4152C317.539 84.3755 320.979 86.0558 324.9 87.4961C328.821 88.9364 333.021 90.1366 337.462 91.1368L355.826 95.5376C364.747 97.5379 372.909 100.178 380.39 103.539C387.832 106.86 394.313 110.94 399.754 115.821C405.195 120.702 409.436 126.383 412.476 132.984C415.517 139.586 417.037 147.107 417.117 155.629C417.037 168.151 413.876 178.953 407.595 188.115C401.314 197.276 392.272 204.358 380.43 209.359C368.588 214.359 354.385 216.88 337.742 216.88C321.099 216.88 306.897 214.359 294.694 209.279C282.492 204.238 272.97 196.716 266.169 186.794C259.328 176.833 255.767 164.51 255.447 149.828H297.255C297.735 156.669 299.695 162.39 303.176 166.951C306.657 171.512 311.377 174.952 317.259 177.233C323.14 179.513 329.821 180.673 337.262 180.673C344.704 180.673 350.945 179.593 356.386 177.473C361.827 175.352 366.028 172.392 369.028 168.591C372.029 164.79 373.509 160.43 373.509 155.509C373.509 150.908 372.149 147.067 369.468 143.946C366.788 140.826 362.827 138.145 357.706 135.945C352.545 133.745 346.264 131.744 338.783 129.944L316.538 124.343C299.295 120.142 285.693 113.581 275.731 104.659C265.769 95.7376 260.808 83.7354 260.848 68.6126C260.768 56.2503 264.089 45.4083 270.77 36.1666C277.451 26.9249 286.653 19.6836 298.375 14.5226C310.097 9.32169 323.38 6.72121 338.302 6.72121C353.225 6.72121 366.748 9.32169 378.07 14.5226C389.432 19.7236 398.233 26.9249 404.555 36.1666C410.876 45.4083 414.156 56.1303 414.316 68.2926H372.909V68.3726Z" fill="#0F172A"/>
<path d="M479.809 216.88C470.047 216.88 461.325 215.16 453.644 211.719C446.002 208.278 439.961 203.198 435.52 196.436C431.08 189.675 428.879 181.233 428.879 171.152C428.879 162.63 430.439 155.469 433.56 149.708C436.681 143.907 440.961 139.266 446.322 135.745C451.683 132.224 457.845 129.544 464.726 127.744C471.607 125.943 478.848 124.703 486.45 123.943C495.371 123.023 502.533 122.143 508.014 121.302C513.455 120.462 517.415 119.222 519.896 117.582C522.376 115.901 523.577 113.461 523.577 110.18V109.58C523.577 103.259 521.616 98.3782 517.656 94.8975C513.695 91.4169 508.094 89.6966 500.852 89.6966C493.211 89.6966 487.13 91.3769 482.609 94.7375C478.088 98.0981 475.088 102.299 473.607 107.38L434.28 104.179C436.281 94.8575 440.201 86.8161 446.042 79.9748C451.883 73.1735 459.485 67.8926 468.767 64.2119C478.048 60.5312 488.81 58.6909 501.052 58.6909C509.574 58.6909 517.736 59.6911 525.537 61.6914C533.338 63.6918 540.3 66.7724 546.381 70.9731C552.462 75.1739 557.263 80.5349 560.783 87.0961C564.304 93.6573 566.064 101.499 566.064 110.62V214.04H525.737V192.796H524.537C522.056 197.596 518.776 201.797 514.655 205.438C510.534 209.079 505.573 211.879 499.772 213.92C493.971 215.96 487.29 216.96 479.729 216.96L479.809 216.88ZM491.971 187.555C498.212 187.555 503.733 186.314 508.534 183.794C513.335 181.313 517.095 177.913 519.816 173.672C522.536 169.431 523.897 164.59 523.897 159.189V142.906C522.576 143.787 520.736 144.547 518.456 145.267C516.175 145.947 513.575 146.587 510.734 147.147C507.854 147.707 505.013 148.227 502.133 148.627C499.252 149.068 496.692 149.428 494.331 149.788C489.33 150.508 484.97 151.668 481.249 153.268C477.528 154.869 474.648 157.029 472.567 159.709C470.487 162.39 469.487 165.751 469.487 169.751C469.487 175.552 471.607 179.953 475.808 182.994C480.049 186.034 485.41 187.515 491.931 187.515L491.971 187.555Z" fill="#0F172A"/>
<path d="M674.084 60.6912V92.6171H579.467V60.6912H674.084ZM601.111 213.999V49.6091C601.111 38.4871 603.271 29.2854 607.632 21.964C611.993 14.6427 617.954 9.16169 625.555 5.48101C633.157 1.84034 641.758 0 651.4 0C657.921 0 663.882 0.480088 669.323 1.48027C674.764 2.48046 678.805 3.36062 681.446 4.16077L673.844 36.0867C672.164 35.5666 670.123 35.0465 667.723 34.6064C665.323 34.1663 662.802 33.9262 660.282 33.9262C654.041 33.9262 649.68 35.3665 647.199 38.247C644.719 41.1276 643.519 45.1683 643.519 50.3693V213.959H601.111V213.999Z" fill="#0F172A"/>
<path d="M754.739 217C738.976 217 725.414 213.799 714.052 207.358C702.69 200.957 693.968 191.835 687.847 180.033C681.726 168.231 678.685 154.228 678.685 138.065C678.685 121.903 681.726 108.46 687.847 96.5378C693.968 84.6156 702.61 75.3339 713.732 68.6927C724.894 62.0515 737.976 58.6909 753.019 58.6909C763.141 58.6909 772.582 60.2912 781.304 63.5318C790.066 66.7724 797.707 71.6133 804.268 78.0544C810.83 84.4956 815.91 92.6171 819.591 102.379C823.232 112.141 825.072 123.543 825.072 136.545V148.227H695.608V121.863H785.025C785.025 115.741 783.705 110.3 781.024 105.58C778.344 100.859 774.703 97.138 769.982 94.4575C765.301 91.777 759.86 90.4167 753.659 90.4167C747.458 90.4167 741.497 91.897 736.536 94.8575C731.575 97.8181 727.694 101.779 724.894 106.74C722.093 111.701 720.653 117.222 720.613 123.263V148.307C720.613 155.909 722.013 162.43 724.854 167.951C727.694 173.472 731.695 177.753 736.896 180.713C742.097 183.714 748.258 185.194 755.379 185.194C760.1 185.194 764.421 184.514 768.342 183.194C772.262 181.874 775.623 179.873 778.424 177.193C781.224 174.512 783.344 171.272 784.825 167.431L824.152 170.031C822.152 179.473 818.071 187.715 811.91 194.716C805.749 201.717 797.827 207.198 788.145 211.079C778.464 214.96 767.302 216.92 754.659 216.92L754.739 217Z" fill="#0F172A"/>
<path d="M842.715 213.999V9.60175H923.37C938.893 9.60175 952.095 12.5623 962.977 18.4434C973.899 24.3245 982.221 32.486 987.982 42.8879C993.743 53.2898 996.624 65.292 996.624 78.8545C996.624 92.417 993.703 104.419 987.822 114.781C981.941 125.143 973.499 133.265 962.417 139.026C951.335 144.827 937.933 147.707 922.25 147.707H870.84V113.061H915.249C923.57 113.061 930.451 111.621 935.852 108.74C941.293 105.859 945.334 101.819 948.015 96.6578C950.695 91.4968 952.055 85.5757 952.055 78.8545C952.055 72.1333 950.695 66.1322 948.015 61.0512C945.334 55.9703 941.253 52.0096 935.772 49.169C930.291 46.3285 923.41 44.9283 915.009 44.9283H885.883V213.999H842.675H842.715Z" fill="#2563EB"/>
<path d="M1072.08 217C1056.55 217 1043.19 213.679 1031.91 207.078C1020.63 200.437 1011.95 191.195 1005.83 179.313C999.704 167.431 996.664 153.628 996.664 137.945C996.664 122.263 999.704 108.26 1005.83 96.3778C1011.95 84.4956 1020.67 75.2539 1031.91 68.6127C1043.19 62.0115 1056.59 58.6909 1072.08 58.6909C1087.56 58.6909 1100.96 62.0115 1112.25 68.6127C1123.53 75.2539 1132.21 84.4956 1138.33 96.3778C1144.45 108.26 1147.49 122.103 1147.49 137.945C1147.49 153.788 1144.41 167.431 1138.33 179.313C1132.21 191.195 1123.53 200.437 1112.25 207.078C1100.96 213.679 1087.56 217 1072.08 217ZM1072.28 184.034C1079.32 184.034 1085.2 182.034 1089.96 177.993C1094.68 173.952 1098.24 168.471 1100.68 161.47C1103.12 154.469 1104.32 146.547 1104.32 137.625C1104.32 128.704 1103.12 120.742 1100.68 113.781C1098.24 106.82 1094.68 101.259 1089.96 97.218C1085.24 93.1772 1079.36 91.1369 1072.28 91.1369C1065.2 91.1369 1059.2 93.1772 1054.35 97.218C1049.51 101.259 1045.91 106.82 1043.47 113.781C1041.03 120.782 1039.83 128.704 1039.83 137.625C1039.83 146.547 1041.03 154.509 1043.47 161.47C1045.91 168.471 1049.51 173.952 1054.35 177.993C1059.2 182.034 1065.16 184.034 1072.28 184.034Z" fill="#2563EB"/>
<path d="M1296.36 104.379L1257.43 106.78C1256.75 103.459 1255.35 100.459 1253.15 97.7381C1250.95 95.0576 1248.07 92.8972 1244.51 91.2569C1240.95 89.6166 1236.71 88.8164 1231.79 88.8164C1225.19 88.8164 1219.62 90.2167 1215.1 92.9772C1210.58 95.7377 1208.3 99.4184 1208.3 104.019C1208.3 107.7 1209.78 110.78 1212.7 113.301C1215.62 115.821 1220.66 117.862 1227.79 119.382L1255.55 124.983C1270.47 128.024 1281.56 132.985 1288.88 139.746C1296.2 146.507 1299.84 155.429 1299.84 166.511C1299.84 176.553 1296.88 185.354 1291 192.956C1285.12 200.557 1277.08 206.438 1266.83 210.679C1256.63 214.92 1244.87 217 1231.55 217C1211.26 217 1195.1 212.759 1183.1 204.278C1171.1 195.796 1164.05 184.234 1161.97 169.591L1203.78 167.391C1205.06 173.592 1208.1 178.273 1212.94 181.513C1217.78 184.754 1224.03 186.354 1231.63 186.354C1239.23 186.354 1245.07 184.914 1249.63 181.994C1254.19 179.113 1256.51 175.352 1256.55 170.752C1256.47 166.911 1254.87 163.71 1251.67 161.23C1248.47 158.749 1243.55 156.829 1236.91 155.509L1210.34 150.228C1195.38 147.227 1184.26 142.026 1176.98 134.665C1169.7 127.264 1166.05 117.862 1166.05 106.42C1166.05 96.5779 1168.74 88.0963 1174.1 80.975C1179.46 73.8537 1187.02 68.3727 1196.74 64.4919C1206.5 60.6512 1217.9 58.6909 1231.03 58.6909C1250.39 58.6909 1265.63 62.7716 1276.8 70.9731C1287.96 79.1346 1294.44 90.2967 1296.32 104.419L1296.36 104.379Z" fill="#2563EB"/>
<path d="M1401.1 60.6911V92.617H1308.76V60.6911H1401.1ZM1329.73 23.9644H1372.25V166.871C1372.25 170.791 1372.85 173.832 1374.05 175.992C1375.25 178.153 1376.93 179.673 1379.09 180.513C1381.25 181.393 1383.78 181.793 1386.62 181.793C1388.62 181.793 1390.62 181.593 1392.62 181.233C1394.62 180.873 1396.14 180.593 1397.22 180.393L1403.9 212.039C1401.78 212.719 1398.78 213.479 1394.9 214.399C1391.06 215.28 1386.34 215.84 1380.81 216.04C1370.57 216.44 1361.61 215.08 1353.93 211.959C1346.25 208.838 1340.29 203.958 1336.01 197.396C1331.77 190.795 1329.65 182.514 1329.73 172.432V23.9644Z" fill="#2563EB"/>
</g>
<defs>
<clipPath id="clip0_13004_30">
<rect width="1435.14" height="217" fill="white"/>
</clipPath>
</defs>
</svg>
